<?xml version="1.0" encoding="UTF-8" standalone="no"?>
<!-- Created with Inkscape (http://www.inkscape.org/) -->

<svg
   xmlns:dc="http://purl.org/dc/elements/1.1/"
   xmlns:cc="http://creativecommons.org/ns#"
   xmlns:rdf="http://www.w3.org/1999/02/22-rdf-syntax-ns#"
   xmlns:svg="http://www.w3.org/2000/svg"
   xmlns="http://www.w3.org/2000/svg"
   xmlns:sodipodi="http://sodipodi.sourceforge.net/DTD/sodipodi-0.dtd"
   xmlns:inkscape="http://www.inkscape.org/namespaces/inkscape"
   width="1000"
   height="449.13184"
   viewBox="0 0 264.58333 118.8328"
   version="1.1"
   id="svg8"
   inkscape:version="0.92.4 (5da689c313, 2019-01-14)"
   sodipodi:docname="A.svg">
  <defs
     id="defs2">
    <clipPath
       clipPathUnits="userSpaceOnUse"
       id="clipPath296">
      <path
         d="M 0,0 H 595.276 V 841.89 H 0 Z"
         id="path294"
         inkscape:connector-curvature="0" />
    </clipPath>
    <clipPath
       clipPathUnits="userSpaceOnUse"
       id="clipPath274">
      <path
         d="M 0,0 H 595.276 V 841.89 H 0 Z"
         id="path272"
         inkscape:connector-curvature="0" />
    </clipPath>
    <clipPath
       clipPathUnits="userSpaceOnUse"
       id="clipPath220">
      <path
         d="M 0,0 H 595.276 V 841.89 H 0 Z"
         id="path218"
         inkscape:connector-curvature="0" />
    </clipPath>
    <clipPath
       clipPathUnits="userSpaceOnUse"
       id="clipPath194">
      <path
         d="M 0,0 H 595.276 V 841.89 H 0 Z"
         id="path192"
         inkscape:connector-curvature="0" />
    </clipPath>
    <clipPath
       clipPathUnits="userSpaceOnUse"
       id="clipPath3548">
      <path
         d="M 120.471,20.944 H 308.568 V 70.962 H 120.471 Z"
         id="path3546"
         inkscape:connector-curvature="0" />
    </clipPath>
    <clipPath
       clipPathUnits="userSpaceOnUse"
       id="clipPath3528">
      <path
         d="M 120.485,20.944 H 308.569 V 70.962 H 120.485 Z"
         id="path3526"
         inkscape:connector-curvature="0" />
    </clipPath>
    <clipPath
       clipPathUnits="userSpaceOnUse"
       id="clipPath2608">
      <path
         d="M 120.471,20.944 H 308.568 V 70.962 H 120.471 Z"
         id="path2606"
         inkscape:connector-curvature="0" />
    </clipPath>
    <clipPath
       clipPathUnits="userSpaceOnUse"
       id="clipPath2588">
      <path
         d="M 120.485,20.944 H 308.569 V 70.962 H 120.485 Z"
         id="path2586"
         inkscape:connector-curvature="0" />
    </clipPath>
    <clipPath
       clipPathUnits="userSpaceOnUse"
       id="clipPath1908">
      <path
         d="M 120.471,20.944 H 308.568 V 70.962 H 120.471 Z"
         id="path1906"
         inkscape:connector-curvature="0" />
    </clipPath>
    <clipPath
       clipPathUnits="userSpaceOnUse"
       id="clipPath1888">
      <path
         d="M 120.485,20.944 H 308.569 V 70.962 H 120.485 Z"
         id="path1886"
         inkscape:connector-curvature="0" />
    </clipPath>
    <clipPath
       clipPathUnits="userSpaceOnUse"
       id="clipPath1646">
      <path
         d="M 120.471,20.944 H 308.568 V 70.962 H 120.471 Z"
         id="path1644"
         inkscape:connector-curvature="0" />
    </clipPath>
    <clipPath
       clipPathUnits="userSpaceOnUse"
       id="clipPath2595">
      <path
         d="M 0,0 H 595.276 V 841.89 H 0 Z"
         id="path2593"
         inkscape:connector-curvature="0" />
    </clipPath>
    <clipPath
       clipPathUnits="userSpaceOnUse"
       id="clipPath3807">
      <path
         d="M 524.409,35.27 H 606.82 V 72.283 H 524.409 Z"
         id="path3805"
         inkscape:connector-curvature="0" />
    </clipPath>
  </defs>
  <sodipodi:namedview
     id="base"
     pagecolor="#ffffff"
     bordercolor="#666666"
     borderopacity="1.0"
     inkscape:pageopacity="0.82352941"
     inkscape:pageshadow="2"
     inkscape:zoom="0.175"
     inkscape:cx="1860.3342"
     inkscape:cy="1033.2852"
     inkscape:document-units="px"
     inkscape:current-layer="layer1"
     showgrid="false"
     units="px"
     inkscape:window-width="1920"
     inkscape:window-height="1017"
     inkscape:window-x="1912"
     inkscape:window-y="-8"
     inkscape:window-maximized="1"
     inkscape:pagecheckerboard="true"
     fit-margin-top="0"
     fit-margin-left="0"
     fit-margin-right="0"
     fit-margin-bottom="0" />
  <metadata
     id="metadata5">
    <rdf:RDF>
      <cc:Work
         rdf:about="">
        <dc:format>image/svg+xml</dc:format>
        <dc:type
           rdf:resource="http://purl.org/dc/dcmitype/StillImage" />
        <dc:title></dc:title>
      </cc:Work>
    </rdf:RDF>
  </metadata>
  <g
     inkscape:label="Layer 1"
     inkscape:groupmode="layer"
     id="layer1"
     transform="translate(-68.815873,927.84406)">
    <g
       id="g3801"
       transform="matrix(3.2105692,0,0,-3.2105692,-1614.8384,-695.77449)"
       style="fill:#c23052;fill-opacity:1">
      <g
         id="g3803"
         clip-path="url(#clipPath3807)"
         style="fill:#c23052;fill-opacity:1">
        <g
           id="g3809"
           transform="translate(537.5279,37.4825)"
           style="fill:#c23052;fill-opacity:1">
          <path
             d="m 0,0 c -6.204,1.041 -10.932,6.437 -10.932,12.937 v 3.28 h -2.186 v -3.28 c 0,-7.71 5.701,-14.089 13.118,-15.15 z"
             style="fill:#c23052;fill-opacity:1;fill-rule:nonzero;stroke:none"
             id="path3811"
             inkscape:connector-curvature="0" />
        </g>
        <g
           id="g3813"
           transform="translate(541.9006,37.4825)"
           style="fill:#c23052;fill-opacity:1">
          <path
             d="m 0,0 c 6.204,1.041 10.932,6.437 10.932,12.937 v 3.28 h 2.186 v -3.28 C 13.118,5.227 7.417,-1.152 0,-2.213 Z"
             style="fill:#c23052;fill-opacity:1;fill-rule:nonzero;stroke:none"
             id="path3815"
             inkscape:connector-curvature="0" />
        </g>
        <g
           id="g3817"
           transform="translate(537.5279,72.2835)"
           style="fill:#c23052;fill-opacity:1">
          <path
             d="m 0,0 h -13.118 v -14.212 h 2.186 V -2.186 H 0 Z"
             style="fill:#c23052;fill-opacity:1;fill-rule:nonzero;stroke:none"
             id="path3819"
             inkscape:connector-curvature="0" />
        </g>
        <g
           id="g3821"
           transform="translate(541.9006,72.2835)"
           style="fill:#c23052;fill-opacity:1">
          <path
             d="m 0,0 v -2.186 h 10.932 v -12.026 h 2.186 V 0 Z"
             style="fill:#c23052;fill-opacity:1;fill-rule:nonzero;stroke:none"
             id="path3823"
             inkscape:connector-curvature="0" />
        </g>
        <g
           id="g3825"
           transform="translate(537.1508,59.853)"
           style="fill:#c23052;fill-opacity:1">
          <path
             d="M 0,0 H -3.878 V 5.872 H -5.9 V -1.781 H 0 Z"
             style="fill:#c23052;fill-opacity:1;fill-rule:nonzero;stroke:none"
             id="path3827"
             inkscape:connector-curvature="0" />
        </g>
        <g
           id="g3829"
           transform="translate(546.4282,58.0719)"
           style="fill:#c23052;fill-opacity:1">
          <path
             d="M 0,0 2.951,7.652 H 0.73 L -0.925,2.556 -2.59,7.652 H -4.841 L -1.945,0 Z"
             style="fill:#c23052;fill-opacity:1;fill-rule:nonzero;stroke:none"
             id="path3831"
             inkscape:connector-curvature="0" />
        </g>
        <g
           id="g3833"
           transform="translate(534.2421,48.9877)"
           style="fill:#c23052;fill-opacity:1">
          <path
             d="M 0,0 H 1.418 V -1.175 C 1.283,-1.227 1.137,-1.267 0.983,-1.293 0.8,-1.323 0.605,-1.339 0.402,-1.339 c -0.348,0 -0.661,0.056 -0.931,0.166 -0.267,0.109 -0.495,0.263 -0.676,0.457 -0.181,0.194 -0.32,0.43 -0.412,0.702 -0.094,0.274 -0.142,0.58 -0.142,0.91 0,0.321 0.053,0.621 0.156,0.891 0.103,0.269 0.249,0.504 0.434,0.699 0.186,0.195 0.407,0.35 0.658,0.459 0.251,0.109 0.53,0.164 0.829,0.164 0.347,0 0.661,-0.062 0.932,-0.185 C 1.522,2.802 1.742,2.643 1.906,2.453 L 1.987,2.359 3.272,3.822 3.197,3.894 C 2.872,4.204 2.446,4.454 1.93,4.637 1.416,4.819 0.853,4.911 0.255,4.911 -0.322,4.911 -0.869,4.817 -1.369,4.631 -1.87,4.445 -2.313,4.174 -2.686,3.827 -3.06,3.478 -3.356,3.05 -3.568,2.556 -3.779,2.062 -3.886,1.503 -3.886,0.896 c 0,-0.601 0.105,-1.154 0.313,-1.644 0.208,-0.491 0.501,-0.919 0.87,-1.27 0.37,-0.352 0.816,-0.628 1.329,-0.821 0.51,-0.193 1.076,-0.291 1.682,-0.291 0.58,0 1.124,0.061 1.617,0.182 0.492,0.12 0.93,0.279 1.3,0.471 l 0.058,0.03 V 1.666 H 0 Z"
             style="fill:#c23052;fill-opacity:1;fill-rule:nonzero;stroke:none"
             id="path3835"
             inkscape:connector-curvature="0" />
        </g>
        <g
           id="g3837"
           transform="translate(546.303,49.1149)"
           style="fill:#c23052;fill-opacity:1">
          <path
             d="m 0,0 h -1.687 l 0.85,2.336 z m 0.14,4.584 h -1.888 l -3.21,-7.652 h 2.191 l 0.546,1.46 h 2.73 l 0.578,-1.46 h 2.231 z"
             style="fill:#c23052;fill-opacity:1;fill-rule:nonzero;stroke:none"
             id="path3839"
             inkscape:connector-curvature="0" />
        </g>
        <g
           id="g3841"
           transform="translate(564.1514,46.6385)"
           style="fill:#c23052;fill-opacity:1">
          <path
             d="m 0,0 c -1.069,0 -1.815,0.785 -1.815,1.91 0,1.106 0.759,1.91 1.805,1.91 1.1,0 1.93,-0.822 1.93,-1.91 C 1.92,0.839 1.077,0 0,0 M 1.889,3.653 C 1.465,4.201 0.751,4.537 0,4.537 c -1.541,0 -2.659,-1.105 -2.659,-2.627 0,-1.498 1.143,-2.628 2.659,-2.628 0.737,0 1.466,0.345 1.889,0.885 v -0.759 h 0.78 v 8.028 h -0.78 z"
             style="fill:#c23052;fill-opacity:1;fill-rule:nonzero;stroke:none"
             id="path3843"
             inkscape:connector-curvature="0" />
        </g>
        <path
           d="m 568.432,46.047 h 0.781 v 5.003 h -0.781 z"
           style="fill:#c23052;fill-opacity:1;fill-rule:nonzero;stroke:none"
           id="path3845"
           inkscape:connector-curvature="0" />
        <g
           id="g3847"
           transform="translate(574.7655,53.5704)"
           style="fill:#c23052;fill-opacity:1">
          <path
             d="m 0,0 h -0.844 v -7.524 h 4.31 v 0.781 H 0 Z"
             style="fill:#c23052;fill-opacity:1;fill-rule:nonzero;stroke:none"
             id="path3849"
             inkscape:connector-curvature="0" />
        </g>
        <g
           id="g3851"
           transform="translate(583.3668,47.131)"
           style="fill:#c23052;fill-opacity:1">
          <path
             d="M 0,0 V 3.919 H -0.781 V 1.313 c 0,-1.185 -0.733,-1.805 -1.458,-1.805 -0.897,0 -1.28,0.477 -1.28,1.595 v 2.816 h -0.78 V 0.714 c 0,-1.24 0.672,-1.924 1.892,-1.924 0.627,0 1.279,0.342 1.626,0.842 v -0.273 c 0,-0.135 0.011,-0.264 0.032,-0.405 l 0.006,-0.037 h 0.8 L 0.052,-1.035 C 0.043,-0.938 0,-0.096 0,0"
             style="fill:#c23052;fill-opacity:1;fill-rule:nonzero;stroke:none"
             id="path3853"
             inkscape:connector-curvature="0" />
        </g>
        <g
           id="g3855"
           transform="translate(587.1292,46.7645)"
           style="fill:#c23052;fill-opacity:1">
          <path
             d="m 0,0 c -0.984,0 -1.784,0.829 -1.784,1.847 0,1.001 0.812,1.847 1.774,1.847 1.092,0 1.826,-0.768 1.826,-1.91 C 1.816,0.783 1.018,0 0,0 m 1.794,3.524 c -0.429,0.565 -1.108,0.887 -1.878,0.887 -1.45,0 -2.543,-1.111 -2.543,-2.585 0,-1.426 1.145,-2.543 2.606,-2.543 0.78,0 1.405,0.296 1.815,0.858 v -0.815 c 0,-1.174 -0.677,-1.847 -1.857,-1.847 -0.757,0 -1.433,0.323 -1.856,0.886 L -2.5,-2.237 c 0.64,-0.683 1.402,-1.001 2.395,-1.001 1.703,0 2.68,0.934 2.68,2.564 V 4.285 H 1.794 Z"
             style="fill:#c23052;fill-opacity:1;fill-rule:nonzero;stroke:none"
             id="path3857"
             inkscape:connector-curvature="0" />
        </g>
        <g
           id="g3859"
           transform="translate(592.7802,46.6385)"
           style="fill:#c23052;fill-opacity:1">
          <path
             d="m 0,0 c -0.675,0 -1.112,0.338 -1.112,0.859 0,0.643 0.753,0.996 2.12,0.996 h 0.44 V 1.637 C 1.448,0.597 0.92,0 0,0 m 2.228,0.502 v 2.28 c 0,1.066 -0.726,1.755 -1.85,1.755 -0.922,0 -1.628,-0.245 -2.1,-0.727 l 0.48,-0.557 c 0.424,0.381 0.906,0.567 1.473,0.567 0.841,0 1.217,-0.385 1.217,-1.249 V 2.51 H 1.176 c -2.165,0 -3.131,-0.538 -3.131,-1.745 0,-0.873 0.713,-1.483 1.734,-1.483 0.77,0 1.302,0.265 1.712,0.857 0.004,-0.266 0.025,-0.5 0.063,-0.695 L 1.56,-0.592 h 0.759 l -0.007,0.05 C 2.261,-0.175 2.228,0.322 2.228,0.502"
             style="fill:#c23052;fill-opacity:1;fill-rule:nonzero;stroke:none"
             id="path3861"
             inkscape:connector-curvature="0" />
        </g>
        <g
           id="g3863"
           transform="translate(598.6375,51.1757)"
           style="fill:#c23052;fill-opacity:1">
          <path
             d="m 0,0 c -0.639,0 -1.29,-0.34 -1.626,-0.838 -0.001,0.276 -0.004,0.44 -0.032,0.674 l -0.005,0.038 h -0.799 l 0.055,-1.084 v -3.919 h 0.781 v 2.523 c 0,1.394 0.802,1.889 1.489,1.889 0.864,0 1.249,-0.492 1.249,-1.595 v -2.817 h 0.78 v 3.205 C 1.892,-0.683 1.22,0 0,0"
             style="fill:#c23052;fill-opacity:1;fill-rule:nonzero;stroke:none"
             id="path3865"
             inkscape:connector-curvature="0" />
        </g>
        <g
           id="g3867"
           transform="translate(604.1613,46.6236)"
           style="fill:#c23052;fill-opacity:1">
          <path
             d="m 0,0 c -1.046,0 -1.805,0.803 -1.805,1.91 0,1.124 0.738,1.91 1.795,1.91 1.074,0 1.825,-0.786 1.825,-1.91 C 1.815,0.785 1.069,0 0,0 m 0,4.537 c -1.51,0 -2.648,-1.129 -2.648,-2.627 0,-1.523 1.113,-2.628 2.648,-2.628 1.541,0 2.659,1.105 2.659,2.628 0,1.522 -1.118,2.627 -2.659,2.627"
             style="fill:#c23052;fill-opacity:1;fill-rule:nonzero;stroke:none"
             id="path3869"
             inkscape:connector-curvature="0" />
        </g>
        <path
           d="m 569.256,53.329 h -0.865 v -0.865 h 0.865 z"
           style="fill:#c23052;fill-opacity:1;fill-rule:nonzero;stroke:none"
           id="path3871"
           inkscape:connector-curvature="0" />
        <g
           id="g3873"
           transform="translate(565.4075,57.8829)"
           style="fill:#c23052;fill-opacity:1">
          <path
             d="M 0,0 C 1.158,0 2.226,0.531 2.788,1.385 L 2.096,1.874 C 1.608,1.138 0.923,0.781 0,0.781 c -1.746,0 -3.013,1.333 -3.013,3.17 0,1.837 1.267,3.17 3.013,3.17 0.693,0 1.552,-0.438 1.874,-0.956 L 2.607,6.709 C 2.007,7.467 1.057,7.902 0,7.902 -2.234,7.902 -3.919,6.203 -3.919,3.951 -3.919,1.698 -2.234,0 0,0"
             style="fill:#c23052;fill-opacity:1;fill-rule:nonzero;stroke:none"
             id="path3875"
             inkscape:connector-curvature="0" />
        </g>
        <path
           d="m 569.451,58.072 h 0.781 v 5.003 h -0.781 z"
           style="fill:#c23052;fill-opacity:1;fill-rule:nonzero;stroke:none"
           id="path3877"
           inkscape:connector-curvature="0" />
        <g
           id="g3879"
           transform="translate(581.2921,58.6629)"
           style="fill:#c23052;fill-opacity:1">
          <path
             d="m 0,0 c -0.675,0 -1.112,0.337 -1.112,0.86 0,0.642 0.753,0.995 2.12,0.995 h 0.44 V 1.637 C 1.448,0.597 0.92,0 0,0 m 2.228,0.502 v 2.28 c 0,1.066 -0.726,1.755 -1.85,1.755 -0.922,0 -1.628,-0.244 -2.1,-0.727 l 0.48,-0.557 c 0.424,0.381 0.905,0.567 1.473,0.567 0.841,0 1.217,-0.385 1.217,-1.249 V 2.51 H 1.176 c -2.165,0 -3.131,-0.538 -3.131,-1.745 0,-0.873 0.713,-1.483 1.734,-1.483 0.77,0 1.302,0.265 1.711,0.857 0.005,-0.266 0.026,-0.5 0.063,-0.695 L 1.56,-0.592 h 0.759 l -0.007,0.05 C 2.261,-0.175 2.228,0.322 2.228,0.502"
             style="fill:#c23052;fill-opacity:1;fill-rule:nonzero;stroke:none"
             id="path3881"
             inkscape:connector-curvature="0" />
        </g>
        <g
           id="g3883"
           transform="translate(581.6089,63.9949)"
           style="fill:#c23052;fill-opacity:1">
          <path
             d="M 0,0 H 0.723 L -0.376,1.581 -0.389,1.6 h -1.078 l 1.454,-1.586 z"
             style="fill:#c23052;fill-opacity:1;fill-rule:nonzero;stroke:none"
             id="path3885"
             inkscape:connector-curvature="0" />
        </g>
        <path
           d="m 570.273,65.354 h -0.865 v -0.865 h 0.865 z"
           style="fill:#c23052;fill-opacity:1;fill-rule:nonzero;stroke:none"
           id="path3887"
           inkscape:connector-curvature="0" />
        <g
           id="g3889"
           transform="translate(573.7441,58.6635)"
           style="fill:#c23052;fill-opacity:1">
          <path
             d="m 0,0 c -0.476,0 -0.671,0.231 -0.671,0.797 v 2.896 h 1.418 v 0.718 h -1.418 v 1.387 h -0.78 V 4.411 h -1.04 V 3.693 h 1.04 V 0.597 c 0,-0.823 0.472,-1.315 1.262,-1.315 0.408,0 0.842,0.126 0.98,0.171 V 0.144 C 0.791,0.144 0.28,0 0,0"
             style="fill:#c23052;fill-opacity:1;fill-rule:nonzero;stroke:none"
             id="path3891"
             inkscape:connector-curvature="0" />
        </g>
        <g
           id="g3893"
           transform="translate(577.8062,58.6635)"
           style="fill:#c23052;fill-opacity:1">
          <path
             d="m 0,0 c -0.476,0 -0.671,0.231 -0.671,0.797 v 2.896 h 1.418 v 0.718 h -1.418 v 1.387 h -0.78 V 4.411 h -1.04 V 3.693 h 1.04 V 0.597 c 0,-0.823 0.472,-1.315 1.262,-1.315 0.408,0 0.842,0.126 0.98,0.171 V 0.144 C 0.791,0.144 0.28,0 0,0"
             style="fill:#c23052;fill-opacity:1;fill-rule:nonzero;stroke:none"
             id="path3895"
             inkscape:connector-curvature="0" />
        </g>
      </g>
    </g>
  </g>
</svg>
