<svg version="1.1" id="prefix__Ebene_1" xmlns="http://www.w3.org/2000/svg" x="0" y="0" viewBox="0 0 313.7 89.3" xml:space="preserve">
    <style>
        .prefix__st1 {
            fill: #575756
        }
    </style>
    <g id="prefix__Ebene_2">
        <g id="prefix__Ebene_1-2">
            <path class="prefix__st1" d="M7.6 70.2c2.8 0 4.2 1.7 4.2 3.7 0 1.3-.6 2.4-2 3.1 1.6.6 2.3 2 2.3 3.4 0 2.1-1.4 4.1-4.3 4.1H1.7V70.2h5.9zM3 71.4v5.1h4.7c1.9 0 2.8-1.2 2.8-2.6 0-1.5-.9-2.5-2.9-2.5H3zm0 6.2v5.7h4.9c2 0 3-1.4 3-2.9 0-1.4-1-2.7-2.9-2.7H3zM23.2 81.7c-.6 1.9-2 3-4.1 3-2.7 0-4.4-1.9-4.4-5.1 0-3.3 1.7-5.2 4.3-5.2 2.8 0 4.3 1.9 4.3 4.9v.5h-7.4c.1 2.5 1.3 3.8 3.2 3.8 1.4 0 2.5-.7 2.9-1.9h1.2zm-7.3-3h6.2c-.1-1.9-1-3.3-3-3.3-1.9 0-3 1.4-3.2 3.3zM28.1 74.5h2.5v1.1h-2.5V82c0 1.2.6 1.5 1.6 1.5h.5v1s-.4.1-.8.1c-1.3 0-2.5-.7-2.5-2.7v-6.4h-1.7v-1.1h1.7v-4.2h1.2v4.3zM35.4 74.5h2.5v1.1h-2.5V82c0 1.2.6 1.5 1.6 1.5h.5v1s-.4.1-.8.1c-1.3 0-2.5-.7-2.5-2.7v-6.4h-1.7v-1.1h1.7v-4.2h1.2v4.3zM48.4 81.7c-.6 1.9-2 3-4.1 3-2.7 0-4.4-1.9-4.4-5.1 0-3.3 1.7-5.2 4.3-5.2 2.8 0 4.3 1.9 4.3 4.9v.5h-7.4c.1 2.5 1.3 3.8 3.2 3.8 1.4 0 2.5-.7 2.9-1.9h1.2zm-7.2-3h6.2c-.1-1.9-1-3.3-3-3.3s-3.1 1.4-3.2 3.3zM56.1 75.6h-.2c-2.4 0-3.4 1.8-3.4 4.6v4.2h-1.2v-10h1.2v1.9c.7-1.3 1.7-2 3.1-2h.4v1.3zM65.5 75.9c.7-1.1 1.8-1.6 3.1-1.6 2.8 0 4.2 2.3 4.2 5.1 0 3.2-1.6 5.2-4.2 5.2-1.3 0-2.4-.6-3.1-1.7v1.5h-1.2V70.2h1.2v5.7zm-.1 3.6c0 2.6 1 4.1 3.1 4.1s3-1.7 3-4.1c0-2.5-1.1-4-3-4-2-.1-3.1 1.4-3.1 4zM83.2 84.5H82v-1.4c-.7 1-1.8 1.5-3.1 1.5-2.3 0-3.5-1.5-3.5-4.1v-6.1h1.2v6c0 2.1 1 3 2.5 3 1.8 0 2.9-1.2 2.9-3.3v-5.8h1.2v10.2zM87.8 72.2h-1.3v-2.1h1.3v2.1zm0 12.3h-1.2v-10h1.2v10zM92.6 82c0 1.2.3 1.5 1.2 1.5h.2v1h-.5c-1.3 0-2.1-.6-2.1-2.6V70.2h1.2V82zM104.4 84.5h-1.2V83c-.7 1.1-1.8 1.7-3.1 1.7-2.6 0-4.2-2.1-4.2-5.2 0-3 1.5-5.1 4.2-5.1 1.3 0 2.3.5 3 1.6v-5.7h1.2v14.2zm-7.2-5c0 2.6 1.1 4.1 3.1 4.1 2.1 0 3.1-1.6 3.1-4.1 0-2.7-1-4.1-3-4.1-2.1 0-3.2 1.6-3.2 4.1zM109.1 72.2h-1.3v-2.1h1.3v2.1zm-.1 12.3h-1.2v-10h1.2v10zM120.4 84.5h-1.2v-6.1c0-2.1-1-3-2.5-3-1.8 0-2.9 1.1-2.9 3.3v5.8h-1.2v-10h1.2v1.3c.7-1 1.9-1.5 3.1-1.5 2.3 0 3.5 1.5 3.5 4v6.2zM131.5 84c0 3.2-1.6 4.7-4.3 4.7-2.3 0-3.5-1.3-3.9-3.1h1.2c.4 1.2 1 2 2.7 2 2 0 3.1-1 3.1-3.6v-1.1c-.7 1.1-1.8 1.7-3.2 1.7-2.7 0-4.1-2.1-4.1-5.3 0-2.9 1.6-5 4.2-5 1.3 0 2.4.5 3.1 1.6v-1.5h1.2V84zm-7.3-4.7c0 2.7 1 4.2 3 4.2 2.1 0 3.1-1.7 3.1-4.2 0-2.6-1-4-3-4-2 .1-3.1 1.7-3.1 4zM136.8 82.3v2.2h-1.5v-2.2h1.5zM152.7 70.2c2.8 0 4.2 1.7 4.2 3.7 0 1.3-.6 2.4-2 3.1 1.6.6 2.3 2 2.3 3.4 0 2.1-1.4 4.1-4.3 4.1h-6.2V70.2h6zm-4.7 1.2v5.1h4.7c1.9 0 2.8-1.2 2.8-2.6 0-1.5-.9-2.5-2.9-2.5H148zm0 6.2v5.7h4.9c2 0 3-1.4 3-2.9 0-1.4-1-2.7-2.9-2.7h-5zM168.2 81.7c-.6 1.9-2 3-4 3-2.7 0-4.4-1.9-4.4-5.1 0-3.3 1.7-5.2 4.3-5.2 2.8 0 4.3 1.9 4.3 4.9v.5H161c.1 2.5 1.3 3.8 3.2 3.8 1.4 0 2.5-.7 2.9-1.9h1.1zm-7.2-3h6.2c-.1-1.9-1-3.3-3-3.3s-3.1 1.4-3.2 3.3zM173.2 74.5h2.5v1.1h-2.5V82c0 1.2.6 1.5 1.6 1.5h.5v1s-.4.1-.8.1c-1.3 0-2.5-.7-2.5-2.7v-6.4h-1.7v-1.1h1.7v-4.2h1.2v4.3zM180.4 74.5h2.5v1.1h-2.5V82c0 1.2.6 1.5 1.6 1.5h.5v1s-.4.1-.8.1c-1.3 0-2.5-.7-2.5-2.7v-6.4h-1.7v-1.1h1.7v-4.2h1.2v4.3zM193.4 81.7c-.6 1.9-2 3-4 3-2.7 0-4.4-1.9-4.4-5.1 0-3.3 1.7-5.2 4.3-5.2 2.8 0 4.3 1.9 4.3 4.9v.5h-7.4c.1 2.5 1.3 3.8 3.2 3.8 1.4 0 2.5-.7 2.9-1.9h1.1zm-7.2-3h6.2c-.1-1.9-1-3.3-3-3.3-1.9 0-3.1 1.4-3.2 3.3zM201.1 75.6h-.2c-2.4 0-3.4 1.8-3.4 4.6v4.2h-1.2v-10h1.2v1.9c.7-1.3 1.7-2 3.1-2h.4v1.3zM210.6 82c0 1.2.3 1.5 1.2 1.5h.3v1h-.5c-1.3 0-2.1-.6-2.1-2.6V70.2h1.2V82zM215.9 72.2h-1.3v-2.1h1.3v2.1zm0 12.3h-1.2v-10h1.2v10zM218.1 74.5h1.2l3 8.6 3-8.6h1.2l-3.6 10h-1.3l-3.5-10zM230 72.2h-1.3v-2.1h1.3v2.1zm-.1 12.3h-1.2v-10h1.2v10zM241.3 84.5h-1.2v-6.1c0-2.1-1-3-2.5-3-1.8 0-2.9 1.1-2.9 3.3v5.8h-1.2v-10h1.2v1.3c.7-1 1.9-1.5 3.1-1.5 2.3 0 3.5 1.5 3.5 4v6.2zM252.4 84c0 3.2-1.6 4.7-4.3 4.7-2.3 0-3.5-1.3-3.9-3.1h1.2c.4 1.2 1 2 2.7 2 2 0 3.1-1 3.1-3.6v-1.1c-.7 1.1-1.8 1.7-3.2 1.7-2.7 0-4.1-2.1-4.1-5.3 0-2.9 1.6-5 4.2-5 1.3 0 2.4.5 3.1 1.6v-1.5h1.2V84zm-7.3-4.7c0 2.7 1 4.2 3 4.2 2.1 0 3.1-1.7 3.1-4.2 0-2.6-1-4-3-4-2 .1-3.1 1.7-3.1 4zM257.6 82.3v2.2h-1.5v-2.2h1.5z" />
            <path d="M38.6 4.5v52.4h-7.8v-41h-.1l-8.1 40.9h-4.4l-8.1-40.9h-.2v40.9H2.1V4.5h11.8l6.4 30.6h.1l6.4-30.6h11.8zM49.1 56.8V4.5h9v52.4h-9zM69.1 56.8V4.5h8.3l11 30h.1v-30h8.1v52.4h-7.9L77.3 24.1h-.2v32.7h-8zM107.3 56.8V4.5h24.1v7.8h-15.1v13.5h11.6v7.8h-11.6V49h16.1v7.8h-25.1zM148.5 56.8h-9V4.5h12.6c10.1 0 15.2 4.3 15.2 15.5 0 8.4-3.3 11.8-6.3 13.2l7.6 23.7h-9.1l-6.4-21.7c-1.5.2-3.1.2-4.6.2v21.4zm0-28.8h3.2c4.9 0 6.7-1.8 6.7-8s-1.8-8-6.7-8h-3.2v16zM245.6 56.8V4.5h9v52.4h-9zM264.5 56.8V4.5h24.1v7.8h-15.1v13.5h11.6v7.8h-11.6V49h16.1v7.8h-25.1z" />
            <path d="M239 56.5l-4.3-28.2-3.5.5-24.7 3.7 1.1 7 16.3-2.5c-3.5 4.1-7.7 7.6-12.3 10.5-8 4.5-16.9 3.9-21.7.6-6.6-4.5-10.5-16.2 1-30.4 7.4-9.1 21-12.2 30.9-9.1l2.1-6.7c-10.4-3.8-24.7-1.9-34.5 5.4-10.4 7.7-16.2 17.2-15.9 30.5s10.7 21.8 19 23.4c8.1 1.5 23.3 1.1 37.6-16.7l2 13 6.9-1zm-10.1-19.6l-.7-.5" fill="#e53138" />
            <path d="M304.8 21.5c-4.9 0-8.9-4-8.9-8.9s4-8.9 8.9-8.9 8.9 4 8.9 8.9-4 8.9-8.9 8.9zm0-16c-3.9 0-7.1 3.2-7.1 7.1s3.2 7.1 7.1 7.1c3.9 0 7.1-3.2 7.1-7.1 0-4-3.2-7.1-7.1-7.1z" />
            <path d="M303.2 13h1.9l1.6 3.5h1l-1.7-3.7c.9-.2 1.6-1 1.6-2 0-.6-.2-1.2-.7-1.5-.6-.4-1.3-.6-2-.5h-2.6v7.8h.9V13zm1.6-3.5c1.3 0 1.9.4 1.9 1.4 0 .9-.6 1.4-1.9 1.4h-1.6V9.5h1.6z" />
            <path d="M308.3 17h-1.9l-1.6-3.5h-1.2V17h-1.7V8.4h3c.8 0 1.6.2 2.2.6.6.4.9 1.1.9 1.8 0 1-.5 1.9-1.5 2.2l1.8 4zm-1.3-.8l-1.5-3.5h-.1l1.6 3.5zm-4.3 0l.1-7h-.1v7zm3.6-6.7c.5.3.8.8.8 1.4 0 .4-.1.8-.4 1.1.3-.3.5-.7.4-1.1 0-.5-.2-.9-.5-1.2-.1-.1-.2-.2-.3-.2zm-2.7 2.4h1.2c1.5 0 1.5-.7 1.5-1s0-1-1.5-1h-1.2v2z" />
        </g>
    </g>
</svg>