<?xml version="1.0" encoding="UTF-8" standalone="no"?>
<!-- Created with Inkscape (http://www.inkscape.org/) -->

<svg
   xmlns:dc="http://purl.org/dc/elements/1.1/"
   xmlns:cc="http://creativecommons.org/ns#"
   xmlns:rdf="http://www.w3.org/1999/02/22-rdf-syntax-ns#"
   xmlns:svg="http://www.w3.org/2000/svg"
   xmlns="http://www.w3.org/2000/svg"
   xmlns:sodipodi="http://sodipodi.sourceforge.net/DTD/sodipodi-0.dtd"
   xmlns:inkscape="http://www.inkscape.org/namespaces/inkscape"
   version="1.1"
   width="1024"
   height="225"
   id="svg5003"
   inkscape:version="0.48.3.1 r9886"
   sodipodi:docname="swissgrid logo.svg">
  <sodipodi:namedview
     pagecolor="#ffffff"
     bordercolor="#666666"
     borderopacity="1"
     objecttolerance="10"
     gridtolerance="10"
     guidetolerance="10"
     inkscape:pageopacity="0"
     inkscape:pageshadow="2"
     inkscape:window-width="1455"
     inkscape:window-height="480"
     id="namedview3009"
     showgrid="false"
     inkscape:zoom="0.34179688"
     inkscape:cx="-48.274286"
     inkscape:cy="112.5"
     inkscape:window-x="0"
     inkscape:window-y="0"
     inkscape:window-maximized="0"
     inkscape:current-layer="svg5003" />
  <defs
     id="defs5005">
    <clipPath
       id="clipPath4337">
      <path
         d="m 467.716,782.301 113.387,0 0,24.156 -113.387,0 0,-24.156 z"
         id="path4339" />
    </clipPath>
  </defs>
  <metadata
     id="metadata5008">
    <rdf:RDF>
      <cc:Work
         rdf:about="">
        <dc:format>image/svg+xml</dc:format>
        <dc:type
           rdf:resource="http://purl.org/dc/dcmitype/StillImage" />
        <dc:title />
      </cc:Work>
    </rdf:RDF>
  </metadata>
  <g
     id="g3905">
    <g
       style="fill:#df1400;fill-opacity:1"
       transform="matrix(8.9335678,0,0,-8.9335678,105.87917,134.70671)"
       id="g4341">
      <path
         d="m 0,0 c 0,-0.696 -0.149,-1.318 -0.447,-1.865 -0.298,-0.547 -0.724,-1.012 -1.279,-1.393 -0.554,-0.381 -1.22,-0.672 -1.998,-0.87 -0.778,-0.198 -1.648,-0.298 -2.608,-0.298 -0.91,0 -1.775,0.054 -2.594,0.162 -0.819,0.108 -1.552,0.229 -2.198,0.362 l 0,2.466 c 0.662,-0.148 1.34,-0.289 2.035,-0.421 0.694,-0.133 1.431,-0.2 2.208,-0.2 0.331,0 0.682,0.021 1.055,0.062 0.372,0.042 0.711,0.12 1.017,0.235 0.306,0.115 0.562,0.276 0.769,0.482 0.207,0.206 0.31,0.466 0.31,0.779 0,0.313 -0.083,0.556 -0.249,0.729 -0.165,0.172 -0.397,0.317 -0.695,0.432 -0.299,0.115 -0.658,0.215 -1.081,0.297 -0.422,0.082 -0.89,0.182 -1.404,0.297 -0.182,0.05 -0.497,0.133 -0.944,0.25 -0.447,0.115 -0.902,0.31 -1.366,0.585 -0.464,0.274 -0.874,0.652 -1.23,1.134 -0.356,0.482 -0.534,1.105 -0.534,1.87 0,0.814 0.186,1.483 0.558,2.006 0.372,0.524 0.843,0.935 1.414,1.234 0.571,0.299 1.196,0.506 1.876,0.623 0.679,0.116 1.317,0.174 1.914,0.174 1.261,0 2.264,-0.053 3.011,-0.161 0.746,-0.108 1.269,-0.178 1.567,-0.21 l 0,-2.333 c -0.1,0.016 -0.278,0.05 -0.535,0.099 -0.257,0.05 -0.564,0.099 -0.92,0.15 -0.357,0.049 -0.747,0.091 -1.17,0.124 -0.422,0.033 -0.841,0.05 -1.256,0.05 -0.282,0 -0.589,-0.017 -0.921,-0.05 -0.331,-0.033 -0.642,-0.1 -0.932,-0.2 C -6.918,6.501 -7.159,6.355 -7.349,6.164 -7.54,5.973 -7.635,5.727 -7.635,5.427 c 0,-0.299 0.108,-0.541 0.324,-0.724 0.214,-0.183 0.48,-0.333 0.795,-0.45 0.315,-0.116 0.659,-0.208 1.032,-0.274 0.373,-0.067 0.717,-0.133 1.032,-0.2 C -4.037,3.696 -3.573,3.584 -3.059,3.443 -2.545,3.302 -2.06,3.091 -1.604,2.81 -1.148,2.528 -0.767,2.163 -0.46,1.715 -0.154,1.268 0,0.695 0,0"
         id="path4343"
         style="fill:#df1400;fill-opacity:1;fill-rule:nonzero;stroke:none"
         inkscape:connector-curvature="0" />
    </g>
    <g
       style="fill:#df1400;fill-opacity:1"
       transform="matrix(8.9335678,0,0,-8.9335678,271.26363,172.09905)"
       id="g4345">
      <path
         d="m 0,0 -4.329,0 -2.563,9.455 -0.173,0 L -9.653,0 l -4.279,0 -3.234,13.055 3.358,0 c 0.398,-1.725 0.754,-3.293 1.07,-4.702 0.132,-0.597 0.261,-1.194 0.385,-1.791 0.125,-0.597 0.237,-1.146 0.336,-1.642 0.099,-0.498 0.183,-0.93 0.249,-1.295 0.066,-0.365 0.1,-0.605 0.1,-0.721 l 0.174,0 c 0,0.116 0.037,0.356 0.111,0.721 0.075,0.365 0.171,0.797 0.287,1.295 l 0.423,1.642 c 0.149,0.597 0.306,1.194 0.472,1.791 0.382,1.409 0.822,2.977 1.319,4.702 l 4.28,0 C -4.139,11.33 -3.724,9.762 -3.358,8.353 -3.209,7.756 -3.056,7.159 -2.898,6.562 -2.741,5.965 -2.604,5.416 -2.488,4.92 -2.372,4.422 -2.277,3.99 -2.202,3.625 -2.127,3.26 -2.09,3.02 -2.09,2.904 l 0.175,0 c 0,0.116 0.028,0.356 0.086,0.721 0.058,0.365 0.137,0.797 0.237,1.295 0.099,0.496 0.215,1.045 0.348,1.642 l 0.398,1.791 c 0.315,1.409 0.68,2.977 1.095,4.702 l 2.961,0 L 0,0 z"
         id="path4347"
         style="fill:#df1400;fill-opacity:1;fill-rule:nonzero;stroke:none"
         inkscape:connector-curvature="0" />
    </g>
    <g
       style="fill:#df1400;fill-opacity:1"
       transform="matrix(8.9335678,0,0,-8.9335678,477.23329,134.70671)"
       id="g4351">
      <path
         d="m 0,0 c 0,-0.696 -0.15,-1.318 -0.447,-1.865 -0.299,-0.547 -0.725,-1.012 -1.28,-1.393 -0.554,-0.381 -1.22,-0.672 -1.998,-0.87 -0.778,-0.198 -1.647,-0.298 -2.607,-0.298 -0.91,0 -1.776,0.054 -2.595,0.162 -0.819,0.108 -1.552,0.229 -2.197,0.362 l 0,2.466 c 0.662,-0.148 1.34,-0.289 2.035,-0.421 0.694,-0.133 1.43,-0.2 2.208,-0.2 0.33,0 0.682,0.021 1.054,0.062 0.372,0.042 0.712,0.12 1.017,0.235 0.306,0.115 0.563,0.276 0.769,0.482 0.207,0.206 0.311,0.466 0.311,0.779 0,0.313 -0.083,0.556 -0.249,0.729 -0.166,0.172 -0.398,0.317 -0.696,0.432 -0.298,0.115 -0.658,0.215 -1.08,0.297 -0.423,0.082 -0.891,0.182 -1.404,0.297 -0.183,0.05 -0.497,0.133 -0.945,0.25 -0.447,0.115 -0.902,0.31 -1.366,0.585 -0.464,0.274 -0.874,0.652 -1.23,1.134 -0.356,0.482 -0.534,1.105 -0.534,1.87 0,0.814 0.186,1.483 0.558,2.006 0.373,0.524 0.844,0.935 1.415,1.234 0.571,0.299 1.195,0.506 1.875,0.623 0.679,0.116 1.318,0.174 1.915,0.174 1.26,0 2.264,-0.053 3.01,-0.161 0.746,-0.108 1.269,-0.178 1.567,-0.21 l 0,-2.333 c -0.099,0.016 -0.278,0.05 -0.535,0.099 -0.257,0.05 -0.563,0.099 -0.92,0.15 -0.356,0.049 -0.747,0.091 -1.169,0.124 -0.423,0.033 -0.842,0.05 -1.256,0.05 -0.283,0 -0.589,-0.017 -0.921,-0.05 -0.332,-0.033 -0.643,-0.1 -0.933,-0.2 C -6.919,6.501 -7.159,6.355 -7.35,6.164 -7.54,5.973 -7.636,5.727 -7.636,5.427 c 0,-0.299 0.108,-0.541 0.324,-0.724 0.215,-0.183 0.48,-0.333 0.795,-0.45 0.315,-0.116 0.659,-0.208 1.033,-0.274 0.373,-0.067 0.716,-0.133 1.032,-0.2 C -4.038,3.696 -3.574,3.584 -3.06,3.443 -2.546,3.302 -2.061,3.091 -1.604,2.81 -1.148,2.528 -0.768,2.163 -0.461,1.715 -0.154,1.268 0,0.695 0,0"
         id="path4353"
         style="fill:#df1400;fill-opacity:1;fill-rule:nonzero;stroke:none"
         inkscape:connector-curvature="0" />
    </g>
    <g
       style="fill:#df1400;fill-opacity:1"
       transform="matrix(8.9335678,0,0,-8.9335678,596.34455,134.70671)"
       id="g4355">
      <path
         d="m 0,0 c 0,-0.696 -0.149,-1.318 -0.447,-1.865 -0.298,-0.547 -0.724,-1.012 -1.279,-1.393 -0.554,-0.381 -1.22,-0.672 -1.999,-0.87 -0.778,-0.198 -1.647,-0.298 -2.606,-0.298 -0.91,0 -1.776,0.054 -2.596,0.162 -0.818,0.108 -1.551,0.229 -2.197,0.362 l 0,2.466 c 0.662,-0.148 1.34,-0.289 2.035,-0.421 0.694,-0.133 1.431,-0.2 2.208,-0.2 0.331,0 0.683,0.021 1.054,0.062 0.373,0.042 0.712,0.12 1.017,0.235 0.307,0.115 0.563,0.276 0.77,0.482 0.207,0.206 0.311,0.466 0.311,0.779 0,0.313 -0.085,0.556 -0.25,0.729 -0.166,0.172 -0.397,0.317 -0.696,0.432 -0.298,0.115 -0.658,0.215 -1.08,0.297 -0.422,0.082 -0.891,0.182 -1.404,0.297 -0.182,0.05 -0.496,0.133 -0.944,0.25 -0.447,0.115 -0.902,0.31 -1.367,0.585 -0.463,0.274 -0.873,0.652 -1.229,1.134 -0.357,0.482 -0.534,1.105 -0.534,1.87 0,0.814 0.185,1.483 0.558,2.006 0.372,0.524 0.844,0.935 1.414,1.234 0.57,0.299 1.196,0.506 1.875,0.623 0.68,0.116 1.319,0.174 1.915,0.174 1.261,0 2.265,-0.053 3.011,-0.161 0.746,-0.108 1.268,-0.178 1.567,-0.21 l 0,-2.333 c -0.1,0.016 -0.278,0.05 -0.535,0.099 -0.257,0.05 -0.563,0.099 -0.921,0.15 -0.356,0.049 -0.746,0.091 -1.169,0.124 -0.422,0.033 -0.841,0.05 -1.256,0.05 -0.282,0 -0.588,-0.017 -0.92,-0.05 -0.332,-0.033 -0.643,-0.1 -0.934,-0.2 -0.29,-0.1 -0.531,-0.246 -0.721,-0.437 -0.191,-0.191 -0.287,-0.437 -0.287,-0.737 0,-0.299 0.109,-0.541 0.324,-0.724 0.215,-0.183 0.481,-0.333 0.795,-0.45 0.316,-0.116 0.66,-0.208 1.034,-0.274 0.373,-0.067 0.716,-0.133 1.031,-0.2 0.414,-0.083 0.879,-0.195 1.392,-0.336 0.515,-0.141 1,-0.352 1.456,-0.633 C -1.148,2.528 -0.767,2.163 -0.46,1.715 -0.153,1.268 0,0.695 0,0"
         id="path4357"
         style="fill:#df1400;fill-opacity:1;fill-rule:nonzero;stroke:none"
         inkscape:connector-curvature="0" />
    </g>
    <g
       style="fill:#000000;fill-opacity:1"
       transform="matrix(8.9335678,0,0,-8.9335678,824.9617,80.281626)"
       id="g4363">
      <path
         d="M 0,0 C -0.332,0 -0.701,-0.004 -1.107,-0.013 -1.514,-0.021 -1.933,-0.05 -2.363,-0.1 -2.795,-0.149 -3.214,-0.232 -3.62,-0.349 -4.026,-0.465 -4.387,-0.63 -4.702,-0.846 l 0,-9.432 -3.532,0 0,13.055 3.134,0 0,-0.592 C -5.1,2.037 -5.104,1.901 -5.112,1.778 -5.121,1.654 -5.117,1.592 -5.1,1.592 c 0.581,0.349 1.115,0.61 1.605,0.784 0.489,0.175 0.94,0.299 1.355,0.374 0.414,0.074 0.8,0.116 1.157,0.124 C -0.627,2.882 -0.299,2.887 0,2.887 L 0,0 z"
         id="path4365"
         style="fill:#000000;fill-opacity:1;fill-rule:nonzero;stroke:none"
         inkscape:connector-curvature="0" />
    </g>
    <path
       d="m 318.49004,55.474002 31.55337,0 0,116.627728 -31.55337,0 0,-116.627728 z m 0,-50.1798508 31.55337,0 0,29.2038328 -31.55337,0 0,-29.2038328 z"
       id="path4349"
       style="fill:#df1400;fill-opacity:1;fill-rule:nonzero;stroke:none"
       inkscape:connector-curvature="0" />
    <path
       inkscape:connector-curvature="0"
       style="fill:#000000;fill-opacity:1;fill-rule:nonzero;stroke:none"
       id="path4361"
       d="m 668.60639,114.85989 c 6.19096,0 10.90789,-1.4383 14.15077,-4.33278 3.24289,-2.89448 4.8688,-8.27248 4.8688,-16.134024 0,-8.01341 -1.62591,-13.462887 -4.8688,-16.357362 -3.24288,-2.885543 -7.95981,-4.332781 -14.15077,-4.332781 -6.05696,0 -10.69348,1.447238 -13.9453,4.332781 -3.24288,2.894475 -4.85986,8.272483 -4.85986,16.134023 0,8.013413 1.58124,13.462883 4.76159,16.357363 3.15355,2.89448 7.85261,4.33278 14.04357,4.33278 m 64.32169,-41.594692 c -3.85037,-0.142937 -7.93301,-0.40201 -12.22112,-0.77722 -4.29705,-0.366276 -8.36182,-0.553881 -12.21219,-0.553881 0.58962,0.598549 1.44724,1.482972 2.555,2.671136 1.10776,1.179231 2.14406,2.77834 3.10888,4.770526 0.95589,2.001119 1.80458,4.413182 2.54607,7.227256 0.74149,2.814074 1.10776,6.146295 1.10776,10.005596 0,3.850369 -0.74148,7.995539 -2.21552,12.444459 -1.47404,4.43998 -4.13625,8.59409 -7.99555,12.44446 -3.8325,3.85037 -9.0497,7.06645 -15.63374,9.66612 -6.57511,2.5818 -14.88332,3.8861 -24.94252,3.8861 -1.76885,0 -3.28755,-0.0357 -4.54719,-0.11613 -1.2507,-0.0715 -2.24232,-0.17867 -2.99274,-0.33055 -0.88443,-0.14293 -1.69738,-0.36627 -2.42993,-0.66108 -1.63485,1.02736 -3.43943,2.61754 -5.44055,4.74373 -1.99218,2.12618 -2.98381,4.59185 -2.98381,7.38806 0,3.08208 2.13513,4.96706 6.43217,5.62814 4.28811,0.65215 9.62145,0.9827 15.97322,0.9827 l 8.66556,0 c 5.76215,0 11.68511,0.22334 17.751,0.67895 6.06589,0.42881 11.5779,1.61697 16.53603,3.54662 4.95813,1.92965 8.98717,4.8956 12.10499,8.8889 3.09995,3.99331 4.65439,9.47852 4.65439,16.43777 0,7.11112 -1.62591,13.10554 -4.87773,18.00114 -3.25182,4.88666 -7.64713,8.8889 -13.18595,11.98885 -5.55668,3.10888 -12.02458,5.33334 -19.42157,6.66444 -7.40593,1.34003 -15.17813,2.01005 -23.33448,2.01005 -7.25406,0 -13.48076,-0.18761 -18.66223,-0.55388 -5.1904,-0.37521 -9.56785,-0.82189 -13.12341,-1.34004 -3.56449,-0.50921 -6.40536,-1.03629 -8.54942,-1.55444 -2.14406,-0.51814 -3.82357,-0.92909 -5.01173,-1.2239 l 0,-20.66334 c 4.44891,1.0363 9.04077,1.92965 13.78449,2.67114 3.99331,0.74148 8.37969,1.36683 13.11448,1.88498 4.73479,0.52708 9.25518,0.78616 13.57009,0.78616 4.28811,0 8.47796,-0.25908 12.54273,-0.78616 4.08264,-0.51815 7.67393,-1.3311 10.78282,-2.43886 3.11781,-1.1167 5.59241,-2.57287 7.45059,-4.34172 1.84925,-1.77778 2.76941,-3.93077 2.76941,-6.45003 0,-2.66221 -1.1435,-4.63652 -3.43049,-5.89616 -2.29593,-1.2507 -5.25294,-2.14405 -8.87997,-2.67113 -3.63596,-0.51815 -7.80794,-0.73256 -12.54273,-0.66109 -4.73479,0.0715 -9.58572,0.0357 -14.54385,-0.0983 -4.94919,-0.1608 -9.79119,-0.56281 -14.53491,-1.2239 -4.72586,-0.66108 -8.9157,-1.84924 -12.5338,-3.54662 -3.62703,-1.69738 -6.58404,-4.13624 -8.87996,-7.30766 -2.29593,-3.17142 -3.43943,-7.34339 -3.43943,-12.507 0,-3.54662 0.66109,-6.71804 2.00112,-9.53211 1.32217,-2.80514 2.92128,-5.27974 4.77053,-7.41486 1.84925,-2.14406 3.74316,-3.94864 5.66388,-5.42268 1.92072,-1.48297 3.47516,-2.81407 4.66332,-3.9933 -0.88442,-0.43775 -2.33166,-1.29537 -4.33278,-2.55501 -2.00112,-1.25069 -4.07371,-3.22501 -6.21776,-5.89615 -2.16193,-2.6622 -4.04691,-6.07483 -5.66388,-10.22 -1.64378,-4.14518 -2.4478,-9.264111 -2.4478,-15.338937 0,-6.664442 1.36683,-12.408726 4.10051,-17.223919 2.73367,-4.815193 6.3875,-8.853166 10.97935,-12.113918 4.57399,-3.260752 9.81799,-5.672816 15.73201,-7.218323 5.92296,-1.563374 12.06032,-2.340595 18.41209,-2.340595 4.87772,0 8.46009,0.22334 10.74708,0.670018 2.29593,0.437745 4.26131,0.812955 5.87829,1.107762 l 48.83088,-1.77778 0,19.55558 z" />
    <path
       d="m 845.63308,55.474002 31.55336,0 0,116.627728 -31.55336,0 0,-116.627728 z m 0,-50.1798508 31.55336,0 0,29.2038328 -31.55336,0 0,-29.2038328 z"
       id="path4367"
       style="fill:#000000;fill-opacity:1;fill-rule:nonzero;stroke:none"
       inkscape:connector-curvature="0" />
    <g
       style="fill:#000000;fill-opacity:1"
       transform="matrix(8.9335678,0,0,-8.9335678,986.91745,76.642984)"
       id="g4369">
      <path
         d="M 0,0 C -0.2,0.015 -0.407,0.029 -0.623,0.044 -0.807,0.061 -1.019,0.073 -1.26,0.082 -1.5,0.09 -1.737,0.094 -1.97,0.094 c -0.648,0 -1.197,-0.113 -1.645,-0.336 -0.449,-0.224 -0.811,-0.527 -1.085,-0.908 -0.274,-0.381 -0.474,-0.837 -0.598,-1.368 -0.125,-0.53 -0.187,-1.102 -0.187,-1.716 0,-0.464 0.049,-0.932 0.149,-1.404 0.1,-0.473 0.274,-0.908 0.524,-1.307 0.25,-0.397 0.582,-0.724 0.998,-0.981 0.415,-0.257 0.938,-0.394 1.57,-0.411 0.382,-0.016 0.756,-0.012 1.122,0.014 0.365,0.027 0.739,0.066 1.122,0.118 L 0,0 z M 3.532,-10.359 C 3.316,-10.41 3.014,-10.462 2.624,-10.521 2.233,-10.58 1.803,-10.637 1.33,-10.695 c -0.473,-0.058 -0.967,-0.103 -1.48,-0.136 -0.515,-0.034 -0.996,-0.051 -1.444,-0.051 -1.045,0 -2.023,0.137 -2.935,0.411 -0.913,0.273 -1.705,0.688 -2.377,1.245 -0.672,0.556 -1.203,1.248 -1.593,2.078 -0.39,0.83 -0.584,1.801 -0.584,2.913 0,1.046 0.157,1.987 0.473,2.826 0.315,0.837 0.771,1.555 1.368,2.153 0.597,0.597 1.319,1.058 2.165,1.381 0.847,0.324 1.8,0.486 2.862,0.486 0.233,0 0.539,-0.009 0.921,-0.027 C -0.913,2.567 -0.481,2.532 0,2.479 l 0,5.529 3.532,0 0,-18.367 z"
         id="path4371"
         style="fill:#000000;fill-opacity:1;fill-rule:nonzero;stroke:none"
         inkscape:connector-curvature="0" />
    </g>
  </g>
</svg>
